<svg width="19" height="20" viewBox="0 0 19 20" fill="none" xmlns="http://www.w3.org/2000/svg">
<path d="M5.66498 2V1C5.66498 0.447715 6.11269 0 6.66498 0C7.21726 0 7.66498 0.447715 7.66498 1V2H11.665V1C11.665 0.447715 12.1127 0 12.665 0C13.2173 0 13.665 0.447715 13.665 1V2H15.665C17.3218 2 18.665 3.34315 18.665 5V17C18.665 18.6569 17.3218 20 15.665 20H3.66498C2.00812 20 0.664978 18.6569 0.664978 17V9C0.664978 8.44772 1.11269 8 1.66498 8H16.665V5C16.665 4.44772 16.2173 4 15.665 4H13.665V5C13.665 5.55228 13.2173 6 12.665 6C12.1127 6 11.665 5.55228 11.665 5V4H7.66498V5C7.66498 5.55228 7.21726 6 6.66498 6C6.11269 6 5.66498 5.55228 5.66498 5V4H3.66498C3.11269 4 2.66498 4.44772 2.66498 5C2.66498 5.55228 2.21726 6 1.66498 6C1.11269 6 0.664978 5.55228 0.664978 5C0.664978 3.34315 2.00812 2 3.66498 2H5.66498ZM16.665 10H2.66498V17C2.66498 17.5523 3.11269 18 3.66498 18H15.665C16.2173 18 16.665 17.5523 16.665 17V10Z" fill="#001122" fill-opacity="0.45"/>
</svg>
